/* XPM */
static char *magick[] = {
/* columns rows colors chars-per-pixel */
"32 32 5 1",
"  c ",
". c ",
"X c ",
"o c ",
"O c None",
/* pixels */
"OOOOOOOOOOOOOOOOOOOOOOOOOOOOOOOO",
"OOOOOOOOOOOOOOOOOOOOOOOOOOOOOOOO",
"OOOOOOOOOO              OOOOOOOO",
"OOOOOOOOO   XX  X   XXX   OOOOOO",
"OOOOO     XXooXX XXXXXXX      OO",
"OOOOO     XXooXX XXXXXXX      OO",
"OOO                            O",
"OO   XXoooXXXXXXXXXXXXXXXXXXXX  ",
"OOO                            O",
"OOO                            O",
"OOOOO    oooooooo  ooooo      OO",
"OOOOOO   ooooo  ooo       OOOOOO",
"OOOOOO   ooooo  ooo       OOOOOO",
"OOOOOOO      ooo oooooo   OOOOOO",
"OOOOOO   XXX  oo     ooo   OOOOO",
"OOOOO  XXoooX oo    oooo   OOOOO",
"OOOOO  XXoooX oo    oooo   OOOOO",
"OOO   XooXXXX ooooooooo XX  OOOO",
"OOO    XXXXXX      .   XXXX   OO",
"OO   oooo XX XXXXXXX XX XXX   OO",
"OO   oooo XX XXXXXXX XX XXX   OO",
"   ooooooo  XXXXXXX XXX     OOOO",
"OO   oooo .. XXXX  X    ...   OO",
"OO   oooo .. XXXX  X    ...   OO",
"OOO      .... XXX   ........   O",
"OO   .........     . ......   OO",
"OO   .....          .  ...  OOOO",
"OO   .....          .  ...  OOOO",
"OOO   ....    OOOOO  ...   OOOOO",
"OOOOO       OOOOOOOO      OOOOOO",
"OOOOO       OOOOOOOO      OOOOOO",
"OOOOOOOOOOOOOOOOOOOOOOOOOOOOOOOO"
};
