/* XPM */
static char * xrick_xpm[] = {
"48 48 2 1",
" 	c None",
".	c #D308FA",
"                                                ",
"                                                ",
"                                                ",
"                ....................            ",
"               ......................           ",
"              .........................         ",
"         ....................................   ",
"        ......................................  ",
"        ......................................  ",
"      ........................................  ",
"     .......................................... ",
"    ............................................",
"    ............................................",
"     .......................................... ",
"     .......................................... ",
"      ........................................  ",
"        .....................................   ",
"         ...............................        ",
"         ...............................        ",
"          ..............................        ",
"           .............................        ",
"          ..............................        ",
"         ................................       ",
"        .................................       ",
"        .................................       ",
"        .................................       ",
"     .....................................      ",
"     ........................................   ",
"     .........................................  ",
"    ..........................................  ",
"   ...........................................  ",
"   ..........................................   ",
"...........................................     ",
".............................................   ",
"   ...........................................  ",
"   ...........................................  ",
"    ..........................................  ",
"     .......................................... ",
"    ..........................................  ",
"   ..........................................   ",
"   ........................................     ",
"   ........................................     ",
"    ......................................      ",
"     ................        ............       ",
"        ...........           ..........        ",
"        ...........           ..........        ",
"        ..........             ........         ",
"                                                "};
